Coordinates
version=1
nRows=17
nColumns=36
inDegrees=yes

Units are S.I. units (second, meters, Newtons, ...)
If the header above contains a line with 'inDegrees', this indicates whether rotational values are in degrees (yes) or radians (no).

endheader
time	pelvis_tilt	pelvis_list	pelvis_rotation	pelvis_tx	pelvis_ty	pelvis_tz	hip_flexion_r	hip_adduction_r	hip_rotation_r	knee_angle_r	knee_angle_r_beta	ankle_angle_r	subtalar_angle_r	mtp_angle_r	hip_flexion_l	hip_adduction_l	hip_rotation_l	knee_angle_l	knee_angle_l_beta	ankle_angle_l	subtalar_angle_l	mtp_angle_l	lumbar_extension	lumbar_bending	lumbar_rotation	arm_flex_r	arm_add_r	arm_rot_r	elbow_flex_r	pro_sup_r	arm_flex_l	arm_add_l	arm_rot_l	elbow_flex_l	pro_sup_l
      0.00000000	      9.45359559	     -0.21682633	     -0.61349762	      0.40697004	      1.03465620	      0.70146144	      9.51272712	     -2.29325641	     -0.97627307	     10.11908760	      0.17661140	     -2.80398745	     -9.13874427	     -6.98452482	    -17.08824995	      0.72323602	     -3.61344651	      5.24878207	      0.09160853	      5.57159608	     -9.48811654	     -6.98452482	    -24.74149586	     -0.53509230	      3.00853465	     -2.08520667	    -13.89032513	     -6.71976081	     33.94149234	     98.57433935	     17.89571584	    -13.32788328	     11.86089389	     28.92444608	     94.31721587
      0.01666670	      9.36095105	      0.12140646	     -0.23537245	      0.40344575	      1.03302211	      0.70153703	     10.80151737	     -2.34399388	     -1.19059756	      9.85460248	      0.17199526	     -2.96927203	     -7.76040167	     -7.05856342	    -16.56502690	      1.21717691	     -2.14586479	      6.63005545	      0.11571630	      8.36290752	    -10.23342017	     -7.05856342	    -24.62721526	     -0.79747761	      2.65134713	     -1.07261469	    -14.17715486	     -3.70429468	     31.99086470	     99.76331974	     18.31122759	    -13.79244701	     14.29013147	     29.21574056	     94.63272553
      0.03333330	      8.60671333	      0.39276541	     -0.11689766	      0.40165716	      1.03181129	      0.70114368	     11.95532151	     -2.55615073	     -0.19632604	      7.95640815	      0.13886552	     -3.31110075	     -6.77702950	     -7.19156423	    -15.96601473	      1.54588459	     -1.47764085	      7.14172836	      0.12464667	      9.98404860	     -9.75264007	     -7.19156423	    -23.77430070	     -0.88489361	      2.43029533	     -1.24613808	    -14.19319693	     -4.12237810	     31.57400332	    103.89918210	     18.79798225	    -13.85224332	     15.65737163	     28.56989899	     97.83777709
      0.05000000	      8.28062599	      0.45068711	      0.18625310	      0.40185714	      1.02964104	      0.70113483	     12.72411674	     -2.64181755	     -0.12771428	      6.94519271	      0.12121648	     -2.31568215	     -5.08081312	     -7.22422910	    -16.07864517	      1.57630707	     -1.02717242	      7.24018028	      0.12636498	     11.05573119	     -9.24670260	     -7.22422910	    -23.31841208	     -0.69551901	      2.11226412	     -1.35293929	    -14.55134016	     -3.16620049	     31.38706615	    104.15859493	     18.92383513	    -13.83758318	     16.32366104	     28.54594091	     97.58746929
      0.06666670	      8.06097709	      0.33057995	      0.04294057	      0.40477586	      1.02674095	      0.70236228	     13.27579481	     -2.34897842	      0.04512498	      6.62168220	      0.11557016	     -1.76627146	     -4.11319912	     -7.28323345	    -16.43721863	      1.46881552	     -1.67877461	      7.66882452	      0.13384624	     12.00637768	     -8.88890695	     -7.28323345	    -22.69616396	     -0.49414796	      2.45200858	     -1.59170318	    -14.94212595	     -2.50529997	     31.05985637	    103.33112228	     19.23526611	    -13.45312899	     17.63179901	     27.40675646	     96.46528856
      0.08333330	      8.02235905	     -0.05043780	     -0.06748858	      0.40795369	      1.02493262	      0.70416075	     13.32024827	     -1.69535233	      0.11793842	      6.69839074	      0.11690897	     -2.16856116	     -4.25421750	     -7.32309398	    -17.03396592	      1.02791705	     -2.69204702	      8.38232654	      0.14629920	     12.59459716	     -8.63762809	     -7.32309398	    -22.25026892	      0.05840860	      2.74234384	     -1.68167987	    -15.34594007	     -1.96953863	     30.70133922	    102.08117845	     19.07763931	    -12.95830584	     17.97765392	     26.72879306	     94.61844570
      0.10000000	      8.03640448	     -0.56592763	     -0.07243646	      0.40980621	      1.02431084	      0.70629976	     13.07009319	     -0.87406345	      0.09792853	      7.13168767	      0.12447143	     -3.14954656	     -4.79553982	     -7.38225183	    -17.60925358	      0.37094432	     -3.78304434	      9.53433407	      0.16640552	     12.69798906	     -8.89643854	     -7.38225183	    -21.79843534	      0.79614861	      3.22769781	     -1.91141056	    -15.75732210	     -1.70039407	     30.53584766	    101.52756832	     19.07135194	    -12.35770639	     18.72899670	     25.69085318	     94.68008409
      0.11666670	      8.01688201	     -1.14878723	     -0.08985232	      0.41152569	      1.02402801	      0.70895736	     12.75327697	      0.03088732	      0.25824329	      7.87536163	      0.13745099	     -4.27121274	     -5.53717383	     -7.45264963	    -17.90333608	     -0.39299316	     -4.79667414	     11.25521255	      0.19644052	     12.84392639	     -9.29137521	     -7.45264963	    -21.33082285	      1.63160346	      3.55047692	     -1.82144740	    -16.13424806	     -1.00622245	     30.06856816	    100.18878700	     18.81377539	    -11.86184245	     19.44012109	     24.81053852	     93.29775140
      0.13333330	      8.01042461	     -1.78320154	     -0.15351672	      0.41559590	      1.02367033	      0.71168300	     12.36370406	      0.96840108	      0.50940315	      8.81202117	      0.15379878	     -5.25212521	     -6.27116366	     -7.46924380	    -18.08169633	     -1.18183720	     -5.57398601	     13.15253983	      0.22955513	     13.12296156	     -9.37614042	     -7.46924380	    -20.82545924	      2.54185145	      3.72961992	     -1.58586737	    -16.41952024	     -0.26870125	     29.54648496	     98.87241096	     18.14813904	    -11.33871228	     18.87048925	     24.16342497	     92.23378132
      0.15000000	      8.11195262	     -2.48472785	     -0.26050751	      0.42172760	      1.02329806	      0.71381993	     11.80681241	      1.93291856	      0.65736091	      9.86363746	      0.17215295	     -5.44616191	     -6.49881909	     -7.46942333	    -18.35135128	     -1.93498925	     -5.88999124	     14.99980877	      0.26179605	     13.35050800	     -9.69993477	     -7.46942333	    -20.52797881	      3.53240455	      4.02338234	     -1.50950583	    -16.65785656	     -0.35127711	     29.47419910	     98.83234957	     17.37606428	    -10.98292419	     18.89154292	     23.87523502	     92.21795731
      0.16666670	      7.80021951	     -3.22038004	     -0.28086144	      0.42724965	      1.02241806	      0.71555061	     11.56978689	      2.96140923	      1.08565680	     10.77552557	      0.18806840	     -5.54586774	     -7.46268622	     -7.48829582	    -17.95400039	     -2.81195289	     -6.19385334	     17.30944619	      0.30210683	     14.19560694	     -9.04418534	     -7.48829582	    -19.59343759	      4.56067546	      4.08036101	     -1.22159218	    -16.82574875	      0.20236230	     28.85728038	     96.84388597	     16.53397627	    -10.44864119	     18.28467038	     22.78387068	     90.93038128
      0.18333330	      7.60773377	     -3.96286056	     -0.22038609	      0.43012405	      1.02205167	      0.71743825	     11.13823908	      3.97683626	      1.38454927	     11.58971439	      0.20227868	     -4.94212963	     -8.02849193	     -7.49084603	    -17.63465741	     -3.71312303	     -6.27574317	     19.63172862	      0.34263830	     14.43478725	     -8.77048659	     -7.49084603	    -18.88481093	      5.61941618	      3.66824022	     -0.37268210	    -17.10512774	      1.78481477	     28.04287054	     94.87964857	     15.34892504	    -10.31027892	     18.08028781	     22.33904805	     89.38862275
      0.20000000	      7.40534450	     -4.69924572	     -0.07374534	      0.43122672	      1.02292951	      0.72013421	     10.63779518	      4.94600444	      1.43992612	     12.25000503	      0.21380292	     -3.53021751	     -7.88026862	     -7.49343812	    -17.15426252	     -4.66643816	     -6.26799550	     22.06998069	      0.38519383	     14.28424149	     -8.63695944	     -7.49343812	    -18.22658144	      6.64327770	      3.41709075	      0.46924943	    -17.29367634	      3.00896951	     27.17275821	     90.77153030	     14.49262925	    -10.01823773	     18.18079239	     21.47216083	     86.02864849
      0.21666670	      7.34299939	     -5.32112017	      0.07864079	      0.43105611	      1.02573578	      0.72408809	      9.90250716	      5.88212211	      2.13412483	     12.62564978	      0.22035916	     -2.54104479	     -8.97140368	     -7.49433332	    -16.58031137	     -5.54394216	     -6.18310736	     24.68304378	      0.43080038	     13.82784806	     -8.67056915	     -7.49433332	    -17.93909952	      7.45979273	      3.49122104	      0.83687416	    -17.71564968	      4.04288372	     27.49070149	     91.23439152	     13.81778161	    -10.00455327	     19.12463622	     21.19874036	     86.90037860
      0.23333330	      7.24678023	     -5.80972264	      0.39282646	      0.42920530	      1.02949445	      0.72868186	      9.21007000	      6.61746070	      2.32626218	     12.89322929	      0.22502930	     -0.92128798	     -9.07578576	     -7.49657818	    -15.55727136	     -6.39899965	     -5.93925382	     27.61224354	      0.48192456	     13.25852842	     -8.66387373	     -7.49657818	    -17.71895271	      8.11415016	      3.52314291	      1.23878901	    -17.58529038	      2.73026861	     27.51355036	     94.02968905	     13.23228809	     -9.76664319	     18.18629465	     20.75559958	     90.47224140
      0.25000000	      7.20304343	     -6.14549630	      0.75407415	      0.42603293	      1.03274923	      0.73335421	      8.49116856	      7.21588540	      2.46803636	     13.09723293	      0.22858984	      0.63648219	     -9.19408640	     -7.49681298	    -14.11712572	     -7.21014933	     -5.69940237	     30.98654899	      0.54081730	     12.47644636	     -8.70119583	     -7.49681298	    -17.67606944	      8.56038834	      3.32821940	      2.07637959	    -17.61923396	      3.66447315	     27.25786319	     92.72002087	     12.54238685	     -9.75918513	     18.34640175	     20.55873007	     89.44109843
      0.26666670	      7.23847941	     -6.34149025	      1.19170930	      0.42346171	      1.03446294	      0.73746536	      7.71068236	      7.65207561	      2.23717066	     13.34381535	      0.23289351	      2.46882753	     -8.69271996	     -7.49682314	    -12.16520514	     -8.03272130	     -5.42088218	     35.02323150	      0.61127070	     11.07640634	     -9.04461366	     -7.49682314	    -17.88779428	      8.81263567	      3.22564532	      2.73275512	    -17.51033017	      3.69484593	     27.47233451	     91.85821283	     11.98929021	     -9.67539911	     18.14236056	     20.40635473	     88.82466952
